<svg width="11" height="7" viewBox="0 0 11 7" fill="none" xmlns="http://www.w3.org/2000/svg">
<path fill-rule="evenodd" clip-rule="evenodd" d="M7.38247 0.927312C7.54011 0.769672 7.79569 0.769672 7.95333 0.927312L10.3753 3.34928C10.5329 3.50692 10.5329 3.7625 10.3753 3.92014L7.95333 6.34211C7.79569 6.49975 7.54011 6.49975 7.38247 6.34211C7.22483 6.18447 7.22483 5.92888 7.38247 5.77124L9.519 3.63471L7.38247 1.49817C7.22483 1.34053 7.22483 1.08495 7.38247 0.927312Z" fill="#91909A"/>
<path fill-rule="evenodd" clip-rule="evenodd" d="M0.805664 3.63471C0.805664 3.41177 0.986389 3.23105 1.20933 3.23105L9.6862 3.23105C9.90914 3.23105 10.0899 3.41177 10.0899 3.63471C10.0899 3.85765 9.90914 4.03837 9.6862 4.03837L1.20932 4.03837C0.986389 4.03837 0.805664 3.85764 0.805664 3.63471Z" fill="#91909A"/>
</svg>
